<svg xmlns="http://www.w3.org/2000/svg" viewBox="0 0 1024 1024"><defs><style>.cls-1{fill:#2b7bb1;}.cls-2{fill:#fff;}</style></defs><g id="Capa_2" data-name="Capa 2"><rect class="cls-1" width="1024" height="1024"/></g><g id="Capa_6" data-name="Capa 6"><path class="cls-2" d="M2266,3789.21l47.32-171.87a10.1,10.1,0,0,0-.27-6.15,248.05,248.05,0,1,1,474.21-142.76c8.78,37.15,8.89,75.5.32,114-20.57,92.43-93.72,165.15-186.35,185.25-54.71,11.88-109.18,6.21-158.36-16.33a10,10,0,0,0-7.67-.31l-149.53,56.16A15,15,0,0,1,2266,3789.21Zm279.86-471.55a208.12,208.12,0,0,0-192.14,287.72l1.32,3.18a10,10,0,0,1,.4,6.49l-37.83,137.39,119.79-45a10,10,0,0,1,8.16.5l4,2.08c43.8,22.95,93.33,29.35,143.22,18.52a204.46,204.46,0,0,0,155.79-154.85c7.24-32.53,7.17-64.85-.21-96.08a208.16,208.16,0,0,0-199.28-160Z" transform="translate(-2145.65 -3030.9)"/><path class="cls-2" d="M3049.34,3789.21,3002,3617.34a10,10,0,0,1,.28-6.15,248.05,248.05,0,1,0-474.21-142.76c-8.78,37.15-8.89,75.5-.33,114a244.57,244.57,0,0,0,186.35,185.25c54.72,11.88,109.18,6.21,158.36-16.33a10,10,0,0,1,7.67-.31l149.54,56.16A14.94,14.94,0,0,0,3049.34,3789.21Zm-279.86-471.55a208.15,208.15,0,0,1,192.15,287.72l-1.32,3.18a10,10,0,0,0-.41,6.49l37.83,137.39-119.79-45a10,10,0,0,0-8.16.5l-4,2.08c-43.81,22.95-93.33,29.35-143.22,18.52a204.44,204.44,0,0,1-155.79-154.85c-7.24-32.53-7.17-64.85.21-96.08a208.12,208.12,0,0,1,199.27-160Z" transform="translate(-2145.65 -3030.9)"/></g></svg>